<svg height='100px' width='100px'  fill="#000000" xmlns="http://www.w3.org/2000/svg" xmlns:xlink="http://www.w3.org/1999/xlink" version="1.1" x="0px" y="0px" viewBox="0 0 100 100" style="enable-background:new 0 0 100 100;" xml:space="preserve"><g><path d="M83.8,81.1c-2.6-6.3-11.1-16.5-11.1-16.5s-6.6-5.4-8.8-14c0,0,5.4,8.5,11.4,14c6,5.4,10,11.7,10,11.7s-1.7-7.1-2.6-8.5   c-0.9-1.4-3.1-6.3-6-9.1c-0.8-0.8-1.5-2.1-2.2-3.7c2.7,1.2,5.4,0.9,6.5,0.9c1.7,0,4.7,6.6,6.8,5.1c2.1-1.5,3.2,3,3.2,3   s0-5.5-2.5-4.9c-2.5,0.6-4.9-6.5-8.9-5.7c-2.2,0.4-6-4.9-8.9-9.7c0,0,0-0.1,0-0.1c-1.1-2.6-4.8-9.4,0.6-13.4l2.6-1.4   c0,0-1.4-2-3.1-2.3c-1.7-0.3-0.9,0-4.8-0.3c-4-0.3-7-3.4-9.1-7.1c-1.6-2.7-4.8-3-6.1-2.9c-0.4-0.5-0.8-0.9-1.3-1.4   c-3.4-3.4-3.7-10-6.6-12c-2.8-2-8.3,0.6-9.7,1.7c-0.9,0.7-1.6,3.7-2,5.6c-0.2,1.1-0.1,2.3,0.2,3.4l2.3,6.7c0,0,0.6,1.1-0.6,2.6   c-1.1,1.4-3.1,3.4-2.8,4.8c0.3,1.4,1.1,7.7-3.1,8.8c-4.3,1.1-6.6,5.7-6.6,5.7s3.1-3.1,5.7,0.6c2.6,3.7,0.9,3.1,3.4,8.3   c2.6,5.1-2.6,6.8,2,12.2c0,0-0.9-1.7,0-4c0.9-2.3,1.4-4.8,0.9-7.4c-0.6-2.6,2,3.7,2,6.8c0,3.1,4.8,7.4,4.8,7.4s-2.8-5.1-2.8-6.3   s2-8.3,1.4-10.3c-0.6-2,1.7-8.3,1.7-8.3s4,13.1,7.1,15.9c3.1,2.8,2.3,2.6,6.3,6.3c4,3.7,4,12.5,6,13.4c2,0.9,3.1,3.4,3.1,3.4   s-0.9-4-2.3-6.3c-1.4-2.3-2-8.8-3.7-12c-0.8-1.5-2.1-2.9-3.3-4.1c-1.7-1.6-2.1-2.6-2.5-4.9c-0.3-1.6-1.3-5.2-1.3-5.2   c0-1.7,2.3,6,4,7.7c1.7,1.7,4.6,4,6,8.8c1.4,4.8,2.6,10.5,7.7,12.5c5.1,2,9.7,6.3,11.4,9.4c1.7,3.1-1.7-6.8-3.7-9.1   c-2-2.3-7.7-5.7-7.7-8c0,0,3.1,2.6,5.1,4c2,1.4,5.4,4.3,7.4,6.3s5.1,7.4,7.4,8.5c2.3,1.1,5.7,1.7,5.7,1.7S86.4,87.3,83.8,81.1z    M46.1,33.5c0-2.2-2.5-8.2-4.9-8.2c0,0,1.4,0.8,2,3.8c0.2,1.2-4.7-2.7-5.5-5.5c-0.6-1.8-2.1-6-3-8.6c-0.5-1.4-0.5-1.9-0.6-4.2   c0-0.7,0.2-1.3,0.8-1.8l0.9-0.8c0,0,2.7-0.5,4.6,1.9c1.9,2.5,2.7,6.3,2.7,9c0,2.7,3.3,6.8,3.3,6.8l-0.3-4.9c0,0,1.6,3.3,1.6,5.5   s0,11.2,1.1,12.3C48.8,39,46.1,35.7,46.1,33.5z"></path><path d="M24.8,46.5c0.4-0.7,1.3-2.7,0.4-3.3c-0.9-0.6-1.7-1.7-5.1-0.3c0,0-0.9,2.3-2.8,1.1c-2-1.1-4-1.1-4-1.1S12,44,11.6,44.5   c-0.1,0.1-0.2,0.2-0.3,0.4c-0.1,0-0.2,0-0.2,0c-0.3,0.2-2.3,0.4-2.3,0.9c0,0.5-1.1,2.9-1.1,2.9s2-1.1,2.1-2.1l0.6-0.2   c-0.5,0.9-1,1.7-1,1.7l2.4-2.1l2.2,0.7L12.4,48c-0.2,0.2-0.2,0.4-0.1,0.7l1.5,3.3l0.3-1.1c0.1-0.3,0.1-0.6,0-0.9   c-0.2-0.5-0.4-1.4,0-1.7c0.3-0.3,1.1-0.9,1.8-1.3l1.8,0.2c1.1,0.2,2.4,0.3,2.9-0.5c0,0,1-0.9,1.9-0.4c0.9,0.4,0,2.7,0,2.7   s-1.9,0.4-1.6,2l2.7-1C23.6,49.9,24.4,47.2,24.8,46.5z M13,44.9l0.8-0.6l1.9,0.8C14.9,45,13.9,44.9,13,44.9z"></path><path d="M71.3,32.1c-2.1,1.7-1.7,5.3-1.7,5.3s3.3,3.8,3,2.4c-0.3-1.4-0.1-1.9-0.9-2.3c-0.7-0.4-0.1-2.1,0.3-3.1   c0.4-1,2.1,0.3,2.6,0.6c0.4,0.3,0.3,1.9,0.1,3.3c-0.1,1.4,1.6,4.3,1.6,3.3c0-1-0.1-2.6-0.1-2.6l0.9-4.1c0,0,0.4,3.1,0.4,3.6   c0,0.4,0.1,3.3,0.1,3.3s1-2.3,1.1-3.4c0.1-1.1-0.3-3.8-0.3-3.8s0.7,0.7,1,3.1C79.7,39.9,81,41,81,41s-0.1-3.1-0.3-3.7   c-0.1-0.6-0.9-3.4-0.9-3.4s1.1,1.1,1.4,2.4c0.3,1.3,1.4,3,1.4,3s0.6-2.6-0.4-4.3c-1-1.7-1.4-3-2.7-3.1c-1.3-0.1-3.3-1.9-4.8-2.1   C73.1,29.5,72.1,31.4,71.3,32.1z"></path><path d="M28.9,51.1c-1-1.6-1.6-4.3-2.1-5.9l-0.6-0.8c0,0,0,0.6-0.4,2c-0.4,1.4-0.7,1.7-0.9,2.9c-0.3,1.3-0.7,1.4-0.7,1.4l-1.7,0.7   l0,1c0,0-0.4,2.8,0.6,4.2c0.9,1.3,2.3,4.6,2.1,8.7C24.9,69.6,28,73,28,73s-2.1-4.2-1.3-6.5c0.8-2.3,1.1-3.2,0.6-5.7   c-0.6-2.5-0.6-6.3-0.6-6.3s0.6,1.2,0.8,2.1c0.2,0.9,0.1,2,0.7,2.8c0.6,0.8,1.2,1.8,1.2,1.8s-1-2.1-0.5-4.5   C29.4,54.4,29.9,52.7,28.9,51.1z"></path><path d="M81.8,42.5c-0.2,0-2.2-1-2.7-2.1c0,0-0.5,2.1-1.6,2.3l-0.6-0.5c0,0-0.1,0.6-0.2,0.9c-0.2,0.3-2.6-2.1-2.8-2.8   c0,0,0,1.5-0.5,1.6c-0.4,0.1-2.7-1.6-2.7-1.6s1.1,3.1,1.8,3.8c0.7,0.7,3.6,5.3,5.6,6.3c0,0-1.9-2.5-1.9-3.1c0-0.5,0.6-1.1,0.7-1.9   c0.2,0.4,0.4,1,0.6,1.7c1,2.8,4.6,2.8,6.5,5.3c1.9,2.6,2.8,3.3,2.8,3.3s-1.8-2.8-2.1-3.8c-0.3-1-0.4-1.9-1.8-3.2   c-1.4-1.3-2.1-2.4-2.1-3.6c0,0,1.1,1.5,1.9,1.8c0.9,0.3,3.6-0.1,5.3,2.6c1.6,2.7,4.4,5.2,4.4,5.2s-1.8-2.9-1.9-3.6   c-0.1-0.6-2.3-5.1-3.8-5.7c-1.5-0.6-3.6-4.9-3.6-4.9L82,40C82,40,82,42.5,81.8,42.5z"></path><path d="M81,94.3c-1.5-1.1-5.1-2.6-5.8-4.1c-0.8-1.4-1.6-5.6-1.6-5.6s1.5,2.8,2.1,3.3c0.6,0.5,3.9,3,3.9,3s-5.2-8.6-8-10.1   c-2.8-1.5-8.3-3.7-8.3-3.7l1,4.1c0,0-0.6-0.2,1.4,1c1.9,1.2,3.8,0.6,4.8,3.6c0.9,3.1,2.9,6.7,6.3,7.8c3.3,1.1,5.8,4.3,5.8,4.3   S82.5,95.4,81,94.3z"></path></g></svg>